<svg width="198.64" height="34.761" viewBox="0 0 198.64 34.761" xmlns="http://www.w3.org/2000/svg"><g id="svgGroup" stroke-linecap="round" fill-rule="evenodd" font-size="9pt" stroke="#00000000" stroke-width="0.25mm" fill="#00a2ff" style="stroke:#00000000;stroke-width:0.25mm;fill:#00a2ff"><path d="M 58.24 7.601 L 58.24 22.121 L 58.36 27.641 A 8.125 8.125 0 0 1 58.073 29.862 A 5.842 5.842 0 0 1 56.04 32.921 Q 54.001 34.538 50.695 34.734 A 15.816 15.816 0 0 1 49.76 34.761 Q 45.8 34.761 42.08 33.441 L 43.08 29.761 A 31.664 31.664 0 0 0 45.209 30.393 Q 47.418 30.961 49.04 30.961 Q 50.721 30.961 51.926 30.544 A 5.143 5.143 0 0 0 52.82 30.141 A 2.973 2.973 0 0 0 53.692 29.401 Q 54.163 28.798 54.229 27.961 A 3.554 3.554 0 0 0 54.24 27.681 A 6.032 6.032 0 0 0 54.237 27.511 Q 54.227 27.155 54.18 26.421 Q 54.131 25.646 54.122 25.156 A 11.061 11.061 0 0 1 54.12 24.961 A 11.614 11.614 0 0 1 52.262 26.04 Q 50.679 26.761 49.16 26.761 A 9.488 9.488 0 0 1 46.934 26.515 A 6.17 6.17 0 0 1 43.56 24.481 A 6.852 6.852 0 0 1 42.39 22.391 Q 41.688 20.466 41.643 17.617 A 24.999 24.999 0 0 1 41.64 17.221 Q 41.64 14.177 42.454 12.104 A 7.154 7.154 0 0 1 43.82 9.861 A 7.174 7.174 0 0 1 48.001 7.629 A 10.415 10.415 0 0 1 49.8 7.481 A 4.655 4.655 0 0 1 50.432 7.528 Q 51.087 7.618 51.94 7.881 A 15.557 15.557 0 0 1 52.927 8.219 Q 53.388 8.395 53.779 8.585 A 8.113 8.113 0 0 1 54.12 8.761 L 54.2 7.601 L 58.24 7.601 Z M 22.24 7.721 L 26.24 7.721 L 26.32 8.881 A 26.494 26.494 0 0 1 27.987 8.182 Q 30.063 7.401 31.4 7.401 A 8.74 8.74 0 0 1 33.217 7.577 Q 34.311 7.81 35.13 8.349 A 4.601 4.601 0 0 1 36.18 9.301 A 5.81 5.81 0 0 1 37.118 11.027 Q 37.682 12.609 37.718 14.926 A 20.542 20.542 0 0 1 37.72 15.241 L 37.72 26.721 L 33.6 26.721 L 33.6 15.361 A 8.812 8.812 0 0 0 33.534 14.243 Q 33.461 13.673 33.307 13.202 A 3.76 3.76 0 0 0 32.92 12.361 A 2.214 2.214 0 0 0 31.313 11.319 A 3.328 3.328 0 0 0 30.8 11.281 A 4.508 4.508 0 0 0 29.925 11.379 Q 28.563 11.652 26.36 12.681 L 26.36 26.721 L 22.24 26.721 L 22.24 7.721 Z M 4.32 26.721 L 0 26.721 L 6.36 0.521 L 13.84 0.521 L 20 26.721 L 15.6 26.721 L 14.36 21.721 L 5.48 21.721 L 4.32 26.721 Z M 88.32 3.681 L 83.96 3.721 L 83.92 0.081 L 92.44 0.041 L 92.44 23.121 L 96.92 23.121 L 96.92 26.721 L 83.8 26.721 L 83.8 23.121 L 88.32 23.121 L 88.32 3.681 Z M 126.32 11.401 L 123.24 11.401 L 123.24 7.721 L 130.44 7.721 L 130.52 9.641 Q 131.45 9.117 132.792 8.626 A 27.553 27.553 0 0 1 133.86 8.261 Q 135.92 7.601 137.68 7.401 L 137.68 11.401 Q 136.12 11.561 133.96 12.241 Q 132.464 12.711 131.391 13.201 A 11.622 11.622 0 0 0 130.52 13.641 L 130.52 23.121 L 136.36 23.121 L 136.36 26.721 L 123.24 26.721 L 123.24 23.041 L 126.32 23.041 L 126.32 11.401 Z M 194.16 0.041 L 198.24 0.041 L 198.24 23.401 L 198.64 26.721 L 194.6 27.121 L 194.24 25.281 Q 192.049 26.865 189.943 27.114 A 6.659 6.659 0 0 1 189.16 27.161 Q 186.289 27.161 184.514 25.862 A 5.701 5.701 0 0 1 183.56 24.981 A 6.222 6.222 0 0 1 182.49 23.125 Q 181.808 21.347 181.7 18.648 A 26.253 26.253 0 0 1 181.68 17.601 A 18.843 18.843 0 0 1 181.876 14.785 Q 182.093 13.349 182.553 12.198 A 7.503 7.503 0 0 1 183.96 9.901 A 7.545 7.545 0 0 1 189.403 7.412 A 10.219 10.219 0 0 1 189.88 7.401 A 10.481 10.481 0 0 1 193.217 7.962 A 12.58 12.58 0 0 1 194.16 8.321 L 194.16 0.041 Z M 78.24 16.281 L 78.08 19.241 L 66.4 19.241 A 6.981 6.981 0 0 0 66.748 20.976 Q 67.534 23.21 69.928 23.513 A 6.306 6.306 0 0 0 70.72 23.561 A 17.233 17.233 0 0 0 74.203 23.189 A 22.081 22.081 0 0 0 76.56 22.561 L 77.4 26.041 A 13.947 13.947 0 0 1 76.382 26.344 Q 75.884 26.473 75.309 26.593 A 32.097 32.097 0 0 1 74.08 26.821 Q 72.04 27.161 70.72 27.161 A 11.052 11.052 0 0 1 67.095 26.616 Q 62.166 24.907 61.968 17.84 A 21.454 21.454 0 0 1 61.96 17.241 Q 61.96 12.401 64.12 9.901 A 7.066 7.066 0 0 1 68.52 7.52 A 10.279 10.279 0 0 1 70.12 7.401 A 10.446 10.446 0 0 1 72.548 7.666 A 6.835 6.835 0 0 1 76.06 9.661 Q 78.16 11.921 78.24 16.281 Z M 107.68 26.721 L 101.52 26.721 L 101.52 0.521 L 107.76 0.521 A 31.877 31.877 0 0 1 109.616 0.571 Q 110.569 0.627 111.379 0.744 A 12.82 12.82 0 0 1 112.86 1.041 Q 114.8 1.561 116.16 3.001 Q 117.52 4.441 118.08 6.981 A 18.765 18.765 0 0 1 118.372 8.75 Q 118.602 10.648 118.635 13.294 A 72.518 72.518 0 0 1 118.64 14.181 A 31.152 31.152 0 0 1 118.511 17.106 Q 118.376 18.534 118.099 19.736 A 13.148 13.148 0 0 1 117.5 21.681 A 8.938 8.938 0 0 1 116.485 23.566 A 6.305 6.305 0 0 1 114.08 25.621 A 9.2 9.2 0 0 1 112.295 26.247 Q 110.444 26.706 107.849 26.72 A 30.455 30.455 0 0 1 107.68 26.721 Z M 168.56 11.481 L 164.12 11.481 L 164.12 7.801 L 172.68 7.801 L 172.68 23.041 L 177.12 23.041 L 177.12 26.721 L 163.8 26.721 L 163.8 23.041 L 168.56 23.041 L 168.56 11.481 Z M 146.814 7.831 A 6.407 6.407 0 0 0 143.72 9.821 A 6.193 6.193 0 0 0 143.694 9.851 Q 141.68 12.272 141.68 17.281 Q 141.68 20.283 142.404 22.37 A 7.675 7.675 0 0 0 143.72 24.781 Q 145.13 26.481 147.593 27.006 A 11.556 11.556 0 0 0 150 27.241 A 13.643 13.643 0 0 0 150.736 27.221 Q 154.421 27.022 156.28 24.781 A 7.675 7.675 0 0 0 157.596 22.37 Q 158.32 20.283 158.32 17.281 A 19.889 19.889 0 0 0 158.155 14.626 Q 157.74 11.552 156.28 9.821 Q 154.24 7.401 150 7.401 A 13.692 13.692 0 0 0 149.13 7.428 Q 147.862 7.508 146.814 7.831 Z M 106.96 4.121 L 105.68 4.121 L 105.68 23.121 L 106.88 23.121 A 25.793 25.793 0 0 0 108.234 23.087 Q 109.497 23.021 110.374 22.82 A 7.089 7.089 0 0 0 110.54 22.781 Q 111.88 22.441 112.8 21.401 A 4.69 4.69 0 0 0 113.555 20.21 Q 113.885 19.479 114.06 18.541 A 16.025 16.025 0 0 0 114.239 17.274 Q 114.377 15.955 114.397 14.175 A 54.53 54.53 0 0 0 114.4 13.581 Q 114.4 10.668 114.159 8.909 A 14.83 14.83 0 0 0 114.12 8.641 A 7.535 7.535 0 0 0 113.823 7.395 Q 113.503 6.443 112.94 5.781 Q 112.04 4.721 110.72 4.421 Q 109.4 4.121 106.96 4.121 Z M 6.32 18.001 L 13.48 18.001 L 10.52 4.241 L 9.64 4.241 L 6.32 18.001 Z M 194.16 21.161 L 194.16 12.241 A 10.514 10.514 0 0 0 192.036 11.475 A 8.441 8.441 0 0 0 190.08 11.241 A 3.297 3.297 0 0 0 186.933 13.143 Q 186.202 14.56 186.128 17.034 A 19.068 19.068 0 0 0 186.12 17.601 A 14.729 14.729 0 0 0 186.237 19.544 Q 186.52 21.661 187.492 22.591 A 2.702 2.702 0 0 0 189.44 23.321 A 5.054 5.054 0 0 0 191.206 22.978 Q 191.939 22.705 192.72 22.214 A 13.483 13.483 0 0 0 194.16 21.161 Z M 54.12 20.961 L 54.12 12.721 Q 52.448 11.664 50.969 11.383 A 5.603 5.603 0 0 0 49.92 11.281 Q 46.195 11.281 46.083 16.775 A 16.975 16.975 0 0 0 46.08 17.121 Q 46.08 20.845 47.446 22.194 A 2.717 2.717 0 0 0 49.44 22.961 A 5.164 5.164 0 0 0 51.09 22.667 Q 52.447 22.21 54.018 21.037 A 17.549 17.549 0 0 0 54.12 20.961 Z M 146.14 16.327 A 21.839 21.839 0 0 0 146.12 17.281 A 19.439 19.439 0 0 0 146.179 18.856 Q 146.306 20.412 146.706 21.398 A 4.076 4.076 0 0 0 146.96 21.921 A 2.735 2.735 0 0 0 148.641 23.188 Q 149.239 23.361 150 23.361 A 5.22 5.22 0 0 0 151.116 23.25 Q 151.785 23.103 152.27 22.763 A 2.635 2.635 0 0 0 153.04 21.921 Q 153.751 20.701 153.86 18.22 A 21.432 21.432 0 0 0 153.88 17.281 A 19.803 19.803 0 0 0 153.822 15.708 Q 153.662 13.709 153.06 12.681 A 2.63 2.63 0 0 0 151.56 11.503 Q 150.893 11.281 150 11.281 A 5.578 5.578 0 0 0 148.91 11.379 Q 148.29 11.503 147.828 11.782 A 2.521 2.521 0 0 0 146.94 12.681 Q 146.248 13.862 146.14 16.327 Z M 66.4 15.881 L 73.8 15.881 A 9.486 9.486 0 0 0 73.66 14.173 Q 73.099 11.121 70.28 11.121 Q 68.875 11.121 67.994 11.735 A 2.839 2.839 0 0 0 67.46 12.221 A 3.414 3.414 0 0 0 66.911 13.149 Q 66.479 14.201 66.4 15.881 Z M 168.101 3.434 A 2.694 2.694 0 0 0 168.68 4.301 A 3.151 3.151 0 0 0 168.826 4.441 A 2.343 2.343 0 0 0 170.44 5.081 A 2.269 2.269 0 0 0 171.403 4.875 A 2.47 2.47 0 0 0 172.16 4.321 Q 172.88 3.561 172.88 2.481 A 3.131 3.131 0 0 0 172.877 2.339 A 2.347 2.347 0 0 0 172.16 0.701 Q 171.44 0.001 170.4 0.001 A 2.986 2.986 0 0 0 170.368 0.001 A 2.39 2.39 0 0 0 168.64 0.721 A 2.454 2.454 0 0 0 168.148 1.412 A 2.477 2.477 0 0 0 167.92 2.481 A 2.508 2.508 0 0 0 168.101 3.434 Z" vector-effect="non-scaling-stroke"/></g></svg>